<svg width="101" height="12" viewBox="0 0 101 12" fill="none" xmlns="http://www.w3.org/2000/svg">
    <path fill-rule="evenodd" clip-rule="evenodd"
          d="M3.12126 0.0161133C1.94702 0.0161133 0.995117 0.968022 0.995117 2.14226V9.87434C0.995117 11.0486 1.94703 12.0005 3.12126 12.0005H14.8481C16.0224 12.0005 16.9743 11.0486 16.9743 9.87434V2.14226C16.9743 0.968021 16.0224 0.0161133 14.8481 0.0161133H3.12126ZM8.96797 5.838C10.0967 5.838 11.145 5.49386 12.0138 4.90478C12.0526 5.10099 12.073 5.30386 12.073 5.51148C12.073 7.22634 10.6828 8.61651 8.96797 8.61651C7.25311 8.61651 5.86295 7.22634 5.86295 5.51148C5.86295 5.30386 5.88333 5.10099 5.92219 4.90478C6.79094 5.49386 7.83926 5.838 8.96797 5.838Z"
          fill="#B9C5CE"/>
    <path d="M25.3454 2.25518C24.2071 2.16927 23.6379 2.62567 23.6379 3.62439V3.70493H25.3454V5.70238H23.6379V11.7591H21.56V5.70238H20.4001V3.70493H21.56V3.62439C21.56 2.48606 21.8768 1.62158 22.5103 1.03094C23.1439 0.440297 24.089 0.182562 25.3454 0.257734V2.25518Z"
          fill="#B9C5CE"/>
    <path d="M32.4745 3.70493H34.5525V11.7591H32.4745V10.8087C31.8516 11.5927 30.9764 11.9847 29.8488 11.9847C28.7749 11.9847 27.8514 11.5766 27.0782 10.7604C26.3157 9.93352 25.9345 8.92406 25.9345 7.73203C25.9345 6.54001 26.3157 5.53592 27.0782 4.71976C27.8514 3.89286 28.7749 3.47942 29.8488 3.47942C30.9764 3.47942 31.8516 3.87139 32.4745 4.65533V3.70493ZM28.6407 9.37509C29.0595 9.79391 29.5911 10.0033 30.2354 10.0033C30.8798 10.0033 31.4113 9.79391 31.8302 9.37509C32.2597 8.94554 32.4745 8.39785 32.4745 7.73203C32.4745 7.06622 32.2597 6.5239 31.8302 6.10509C31.4113 5.67553 30.8798 5.46075 30.2354 5.46075C29.5911 5.46075 29.0595 5.67553 28.6407 6.10509C28.2219 6.5239 28.0125 7.06622 28.0125 7.73203C28.0125 8.39785 28.2219 8.94554 28.6407 9.37509Z"
          fill="#B9C5CE"/>
    <path d="M39.68 11.9847C38.4665 11.9847 37.4517 11.5766 36.6355 10.7604C35.8301 9.94426 35.4274 8.9348 35.4274 7.73203C35.4274 6.52927 35.8301 5.51981 36.6355 4.70365C37.4517 3.8875 38.4665 3.47942 39.68 3.47942C40.4639 3.47942 41.1781 3.66735 41.8224 4.04321C42.4668 4.41907 42.9554 4.9238 43.2883 5.5574L41.5002 6.60445C41.3392 6.27154 41.0922 6.00844 40.7593 5.81513C40.4371 5.62183 40.072 5.52518 39.6639 5.52518C39.041 5.52518 38.5256 5.73459 38.1175 6.15341C37.7094 6.56149 37.5054 7.0877 37.5054 7.73203C37.5054 8.36563 37.7094 8.89184 38.1175 9.31066C38.5256 9.71874 39.041 9.92278 39.6639 9.92278C40.0827 9.92278 40.4532 9.8315 40.7754 9.64893C41.1083 9.45563 41.3553 9.19253 41.5164 8.85962L43.5567 9.89056C43.2023 10.5242 42.4668 11.0343 41.8224 11.4209C41.1781 11.7967 40.4639 11.9847 39.68 11.9847Z"
          fill="#B9C5CE"/>
    <path d="M46.2857 8.58578C46.5649 9.59524 47.322 10.1 48.557 10.1C49.3517 10.1 49.9531 9.8315 50.3612 9.29455L52.0364 10.2611C51.2417 11.4101 50.0712 11.9847 48.5248 11.9847C47.1932 11.9847 46.1246 11.5819 45.3192 10.7765C44.5138 9.9711 44.1111 8.95627 44.1111 7.73203C44.1111 6.51853 44.5084 5.50907 45.3031 4.70365C46.0978 3.8875 47.118 3.47942 48.3637 3.47942C49.545 3.47942 50.5169 3.8875 51.2793 4.70365C52.0525 5.51981 52.4391 6.52927 52.4391 7.73203C52.4391 8.00051 52.4123 8.28509 52.3586 8.58578H46.2857ZM46.2535 6.97494H50.3612C50.243 6.42725 49.996 6.01917 49.6202 5.7507C49.255 5.48223 48.8362 5.34799 48.3637 5.34799C47.8053 5.34799 47.3435 5.49297 46.9784 5.78292C46.6133 6.06213 46.3716 6.45947 46.2535 6.97494Z"
          fill="#B9C5CE"/>
    <path d="M65.2141 3.70493H67.421L64.8597 11.7591H62.8784L61.3964 6.87829L59.9145 11.7591H57.9331L55.3719 3.70493H57.5787L58.948 8.65021L60.4138 3.70493H62.379L63.8449 8.66632L65.2141 3.70493Z"
          fill="#B9C5CE"/>
    <path d="M74.5838 3.70493H76.6618V11.7591H74.5838V10.8087C73.961 11.5927 73.0857 11.9847 71.9582 11.9847C70.8843 11.9847 69.9607 11.5766 69.1875 10.7604C68.425 9.93352 68.0438 8.92406 68.0438 7.73203C68.0438 6.54001 68.425 5.53592 69.1875 4.71976C69.9607 3.89286 70.8843 3.47942 71.9582 3.47942C73.0857 3.47942 73.961 3.87139 74.5838 4.65533V3.70493ZM70.75 9.37509C71.1688 9.79391 71.7004 10.0033 72.3448 10.0033C72.9891 10.0033 73.5207 9.79391 73.9395 9.37509C74.369 8.94554 74.5838 8.39785 74.5838 7.73203C74.5838 7.06622 74.369 6.5239 73.9395 6.10509C73.5207 5.67553 72.9891 5.46075 72.3448 5.46075C71.7004 5.46075 71.1688 5.67553 70.75 6.10509C70.3312 6.5239 70.1218 7.06622 70.1218 7.73203C70.1218 8.39785 70.3312 8.94554 70.75 9.37509Z"
          fill="#B9C5CE"/>
    <path d="M78.3099 11.7591V0H80.3879V11.7591H78.3099Z" fill="#B9C5CE"/>
    <path d="M82.1717 11.7591V0H84.2496V11.7591H82.1717Z" fill="#B9C5CE"/>
    <path d="M88.0255 8.58578C88.3047 9.59524 89.0618 10.1 90.2968 10.1C91.0915 10.1 91.6929 9.8315 92.1009 9.29455L93.7762 10.2611C92.9815 11.4101 91.811 11.9847 90.2646 11.9847C88.933 11.9847 87.8644 11.5819 87.059 10.7765C86.2536 9.9711 85.8509 8.95627 85.8509 7.73203C85.8509 6.51853 86.2482 5.50907 87.0429 4.70365C87.8376 3.8875 88.8578 3.47942 90.1035 3.47942C91.2848 3.47942 92.2567 3.8875 93.0191 4.70365C93.7923 5.51981 94.1789 6.52927 94.1789 7.73203C94.1789 8.00051 94.1521 8.28509 94.0984 8.58578H88.0255ZM87.9933 6.97494H92.1009C91.9828 6.42725 91.7358 6.01917 91.3599 5.7507C90.9948 5.48223 90.576 5.34799 90.1035 5.34799C89.5451 5.34799 89.0833 5.49297 88.7182 5.78292C88.3531 6.06213 88.1114 6.45947 87.9933 6.97494Z"
          fill="#B9C5CE"/>
    <path d="M100.001 5.70238H98.1804V9.05292C98.1804 9.33214 98.2502 9.53618 98.3898 9.66504C98.5294 9.79391 98.7334 9.86908 99.0019 9.89056C99.2704 9.9013 99.6033 9.89593 100.001 9.87445V11.7591C98.5723 11.9202 97.5629 11.786 96.9722 11.3564C96.3923 10.9269 96.1024 10.159 96.1024 9.05292V5.70238H94.7009V3.70493H96.1024V2.07798L98.1804 1.44976V3.70493H100.001V5.70238Z"
          fill="#B9C5CE"/>
</svg>
